<svg width="1900" height="1900" viewBox="0 0 1900 1900" fill="none" xmlns="http://www.w3.org/2000/svg">
<path d="M922.203 38.2031C935.503 40.1031 948.703 42.2031 962.003 43.8031C999.603 48.2031 1035.6 58.2031 1071.1 71.3031C1106.6 84.4031 1139.9 101.703 1171.5 122.203C1187.8 132.803 1202.9 145.103 1217.9 157.503C1250.5 184.703 1279.7 215.403 1304.2 250.003C1323.3 277.003 1340.2 305.503 1353.8 335.803C1371 374.203 1383.3 414.203 1391.1 455.603C1397.5 489.603 1398.2 523.803 1398.3 558.203C1398.4 592.403 1393.6 626.003 1386 659.103C1373.1 715.603 1351.1 768.503 1319.9 817.403C1296.4 854.303 1268.7 888.003 1236.3 917.403C1202.5 948.103 1165.7 974.703 1124.7 995.503C1106.7 1004.6 1088.6 1013.1 1069.7 1019.8C1066.7 1017.4 1066.8 1014 1066.7 1010.7C1066.6 1000.7 1066.7 990.803 1066.6 980.803C1066.5 973.003 1070.2 969.203 1077.9 968.903C1080.9 968.803 1083.9 968.703 1086.8 967.903C1089.9 967.103 1092.5 965.503 1092.5 961.903C1092.5 957.903 1089.9 956.103 1086.2 955.503C1085.5 955.403 1084.9 955.303 1084.2 955.203C1066.6 952.503 1066.6 952.503 1066.6 935.203C1066.6 882.103 1066.6 829.003 1066.6 776.003C1066.6 771.703 1066.2 767.403 1067.4 763.203C1070.2 757.303 1076.1 757.703 1081.1 756.803C1128.7 748.303 1167.8 725.603 1197.7 687.303C1202.2 681.503 1206 675.303 1209.6 669.003C1213.8 661.503 1219.9 658.203 1228.3 658.503C1232.9 658.703 1237.6 658.803 1242.2 658.203C1246.2 657.703 1249.2 655.803 1249.2 651.303C1249.2 646.803 1246.2 645.003 1242.3 644.203C1239.7 643.703 1237 643.903 1234.4 643.703C1225.6 642.903 1224 640.803 1226.1 632.203C1229.2 619.703 1233 607.403 1234.4 594.403C1236.6 574.203 1229.2 558.903 1212.8 547.603C1209.5 545.503 1205.8 544.103 1202 543.103C1192.4 542.503 1189.5 536.203 1188.5 527.803C1187.9 522.403 1188.4 514.803 1180.4 515.603C1172.1 516.403 1174 524.203 1173.7 529.903C1173.4 534.703 1176.1 539.803 1172.1 544.203C1156.1 553.703 1146.3 566.803 1143.9 586.103C1142.1 600.103 1138.4 614.103 1128.9 625.603C1126.2 628.303 1123.1 628.103 1119.9 626.503C1115.8 624.403 1111.7 623.603 1108.4 627.703C1105.1 631.903 1107.3 635.703 1109.7 639.403C1111.1 641.603 1112.9 643.703 1111 646.603C1102.3 655.503 1091 660.003 1079.6 664.003C1075.3 665.503 1070.6 666.703 1067.6 661.303C1066.5 645.403 1065.2 629.503 1068.5 613.703C1073.9 609.003 1080.4 611.103 1086.6 610.703C1091.3 610.403 1096.7 610.803 1096.5 604.003C1096.4 598.003 1091.6 596.903 1086.7 596.403C1066.8 594.403 1066.8 594.403 1066.8 574.403C1066.8 535.003 1066.8 495.603 1066.8 456.203C1066.8 441.303 1067.1 441.103 1082 439.103C1086.4 438.503 1091.2 438.103 1091.2 432.303C1091.1 426.503 1086.3 426.003 1081.9 425.503C1077.7 425.003 1073.2 425.603 1069.4 423.103C1065.8 418.903 1066.8 413.703 1066.8 408.803C1066.7 372.403 1067 336.003 1066.7 299.603C1066.5 269.703 1057.7 242.403 1039.8 218.203C1022.2 193.703 998.403 178.103 969.903 168.903C940.603 161.103 911.603 162.603 883.003 172.503C875.103 175.203 867.703 179.003 860.703 183.403C860.003 183.903 859.203 184.403 858.503 184.903C856.203 186.203 854.003 187.803 851.803 189.403C845.403 194.503 840.303 192.903 836.103 186.303C834.503 183.803 832.903 181.203 830.603 179.203C827.603 176.603 824.203 175.403 820.603 177.803C817.003 180.303 817.003 183.903 818.603 187.603C820.003 191.003 822.303 193.803 824.403 196.803C831.303 206.503 831.203 208.303 823.603 217.503C821.103 220.603 818.103 223.203 815.703 226.403C812.603 229.803 810.803 233.903 809.703 238.403C800.003 263.803 796.003 290.003 797.303 317.303C797.903 330.503 795.003 332.803 781.903 333.803C779.603 334.003 777.303 334.003 775.003 334.603C772.103 335.303 770.303 337.103 770.103 340.103C769.803 343.203 771.803 345.003 774.303 346.203C778.303 348.103 782.703 347.803 787.003 348.003C793.903 348.403 797.203 352.003 797.203 358.803C797.203 361.103 797.303 363.403 797.303 365.803C797.303 409.803 797.303 453.903 797.303 497.903C797.303 502.203 797.803 506.503 796.203 510.703C793.303 515.603 788.203 514.403 783.803 514.903C779.403 515.503 775.903 517.503 775.903 522.203C775.903 526.903 779.503 528.803 783.903 529.203C787.803 529.603 791.903 529.103 795.103 532.203C797.403 535.403 797.103 539.103 797.103 542.803C797.203 564.703 797.203 586.603 797.103 608.503C797.003 620.203 795.803 621.403 784.103 622.503C781.803 622.703 779.403 622.703 777.203 623.503C773.903 624.703 771.203 626.603 771.103 630.503C771.003 634.503 773.903 636.203 777.103 637.503C779.303 638.303 781.603 638.503 783.903 638.803C796.103 640.303 797.003 641.103 797.003 653.703C797.103 681.603 797.103 709.503 797.003 737.303C796.903 751.303 793.303 753.703 779.803 748.603C735.103 731.903 708.203 700.903 702.403 652.803C701.303 643.303 699.703 633.803 699.903 624.103C700.103 616.403 702.203 611.103 710.903 610.703C712.503 610.603 714.203 610.103 715.703 609.503C718.703 608.303 720.903 606.303 720.703 602.803C720.603 599.303 718.003 597.903 714.903 596.903C700.403 592.403 700.403 592.303 699.903 576.703C699.203 556.203 686.903 540.503 667.303 535.303C647.503 530.003 627.903 537.603 617.503 555.203C613.803 561.503 610.003 566.703 601.903 567.203C598.503 567.403 595.403 569.203 595.103 573.303C594.803 577.203 597.103 579.703 600.503 580.703C608.403 583.203 609.903 589.103 609.903 596.303C610.003 619.503 609.103 642.703 613.303 665.803C615.303 676.503 612.203 679.203 601.203 680.203C599.203 680.403 597.203 680.403 595.303 680.903C591.203 682.003 587.403 683.803 587.803 688.703C588.103 693.303 592.203 694.903 595.803 694.303C615.403 691.303 621.803 702.603 627.403 719.003C637.303 748.003 654.403 772.903 678.603 792.303C681.403 794.603 684.003 797.203 686.903 799.403C693.603 804.403 693.603 810.103 689.303 816.703C686.203 821.503 680.503 827.303 687.503 832.203C694.603 837.103 697.803 829.303 701.403 825.103C708.803 816.503 710.503 815.803 720.803 820.903C741.103 831.003 762.103 839.003 784.303 843.703C795.103 846.003 796.803 848.203 796.903 859.303C797.003 889.203 797.003 919.003 796.903 948.903C796.903 963.603 796.903 963.603 783.003 967.703C779.003 968.903 775.203 970.403 775.303 975.403C775.403 980.303 779.103 982.003 783.303 982.903C783.903 983.003 784.603 983.203 785.303 983.203C794.403 983.203 797.203 988.403 797.003 996.703C796.803 1009 797.003 1021.3 796.903 1033.5C796.903 1037.2 796.903 1040.9 794.203 1043.8C777.103 1038.9 759.603 1035.5 742.503 1030.4C708.403 1020.2 675.903 1006.3 645.103 988.803C608.203 967.903 574.103 943.403 543.203 913.903C505.503 878.003 474.203 837.703 448.503 792.703C423.303 748.403 406.303 701.003 395.203 651.503C390.303 629.703 388.003 607.403 385.603 585.103C383.603 566.503 383.803 548.103 384.103 529.603C384.603 504.203 388.803 479.203 392.703 454.103C397.103 426.203 405.103 399.303 414.303 372.903C423.503 346.403 435.703 321.003 449.803 296.603C454.403 297.303 454.803 301.503 456.203 304.603C478.503 350.803 514.903 377.803 565.603 385.403C616.503 393.003 676.403 362.703 700.503 317.103C724.303 272.103 724.603 227.003 700.803 182.103C685.603 153.503 661.903 134.003 632.003 121.803C628.103 120.203 623.503 119.703 620.803 115.803C637.503 106.703 653.903 96.9031 671.003 88.8031C718.303 66.3031 767.703 50.8031 819.803 43.6031C833.703 41.7031 847.903 41.6031 861.603 38.4031C882.303 38.2031 902.303 38.2031 922.203 38.2031Z" fill="#0F1F29"/>
<path d="M20.3015 1276.6C24.1015 1263.7 26.3015 1250.5 31.0015 1237.7C45.0015 1200.2 72.9015 1179.1 110.401 1171.8C144.401 1165.2 179.001 1166.3 211.301 1182.1C229.501 1191 243.701 1204.3 254.501 1221.6C268.801 1244.7 272.001 1270.4 272.901 1296.6C273.301 1309.9 272.701 1323.2 273.101 1336.4C273.301 1342.5 271.001 1344.4 265.001 1344.4C243.901 1344.5 222.801 1345.8 201.801 1348.1C197.101 1348.6 195.201 1346.6 195.301 1341.9C195.501 1333.3 194.901 1324.6 195.401 1316C196.201 1302 194.001 1288.2 190.901 1274.8C184.601 1247.3 161.801 1238.3 135.401 1244.1C112.001 1249.2 102.301 1265.6 102.101 1289.6C101.301 1391.8 101.501 1494 102.001 1596.2C102.101 1612.7 108.401 1628.2 123.401 1636.6C147.701 1650.2 183.601 1642.4 191.201 1609.2C196.501 1586.1 195.201 1562.5 195.301 1539.1C195.401 1519 192.601 1520.7 212.501 1522C230.301 1523.2 248.101 1522.3 265.801 1525.2C271.301 1526.1 273.101 1527.9 273.001 1533.3C272.501 1561.8 275.401 1590.5 270.601 1618.6C263.801 1658.8 243.801 1690.4 204.401 1706.1C165.201 1721.7 125.401 1721.3 86.6015 1705.8C54.4015 1693 35.7015 1667.2 26.0015 1634.2C23.0015 1624 23.2015 1613.5 20.4015 1603.4C20.3015 1551.8 20.1015 1500.1 20.1015 1448.5C20.0015 1391.1 20.2015 1333.8 20.3015 1276.6Z" fill="white"/>
<path d="M840.602 1884.3C840.602 1884.8 840.602 1885.2 840.502 1885.7C835.202 1885.7 829.802 1885.7 824.502 1885.7C824.502 1885.2 824.502 1884.8 824.402 1884.3C829.902 1880 835.202 1880 840.602 1884.3Z" fill="white"/>
<path d="M794.703 1043.6C794.603 1027.3 794.303 1011.1 794.603 994.801C794.703 988.301 793.603 984.701 786.003 985.401C778.603 986.101 772.303 983.801 771.903 975.201C771.503 966.201 778.303 964.001 785.403 964.501C793.403 965.001 794.603 961.401 794.503 954.501C794.203 922.001 794.203 889.501 794.503 856.901C794.603 850.201 792.103 847.501 785.803 846.401C761.803 841.901 739.203 833.501 717.803 821.901C712.103 818.801 708.303 818.401 705.103 824.701C703.603 827.601 701.403 830.201 699.303 832.801C695.503 837.301 691.103 839.601 685.503 835.801C680.103 832.201 679.903 827.401 682.303 821.801C684.703 816.201 693.203 812.301 689.903 805.801C687.303 800.601 680.703 797.501 676.003 793.401C649.503 770.901 631.103 742.901 621.403 709.701C618.403 699.601 613.603 696.101 603.803 697.401C600.503 697.801 597.203 697.401 593.903 697.401C588.403 697.501 584.903 694.801 584.103 689.501C583.303 683.801 586.103 679.701 591.603 678.201C594.703 677.301 598.203 677.001 601.403 677.401C609.803 678.401 613.103 675.401 611.303 667.001C606.103 642.401 607.003 617.501 607.203 592.701C607.203 587.301 606.603 583.801 600.003 583.601C593.903 583.401 591.603 578.801 591.503 573.301C591.303 567.001 595.703 563.501 600.903 564.001C608.903 564.701 611.703 560.301 614.903 554.501C626.003 534.901 647.703 526.201 669.403 532.301C689.803 538.001 704.003 556.501 703.103 578.401C702.703 588.801 703.703 595.001 716.303 593.501C721.503 592.901 724.703 596.901 725.003 602.401C725.303 608.501 721.703 611.201 716.403 612.901C712.103 614.301 705.603 610.801 703.603 615.601C701.703 620.101 702.503 626.101 703.003 631.301C706.203 660.401 709.503 689.401 730.403 712.601C746.003 729.801 765.603 740.401 787.003 748.201C791.903 750.001 794.503 749.001 794.503 743.201C794.403 711.301 794.403 679.501 794.503 647.601C794.503 642.101 791.903 640.801 787.103 641.001C782.803 641.201 778.503 640.901 774.303 639.701C769.303 638.301 767.103 634.701 767.203 630.101C767.303 625.501 769.703 621.901 774.603 620.601C776.203 620.201 777.803 620.001 779.503 619.801C794.403 618.701 794.503 618.701 794.403 603.901C794.303 580.001 794.203 556.101 794.103 532.201C794.503 531.901 794.903 531.601 795.403 531.301C799.903 533.801 798.603 538.201 798.603 542.001C798.703 560.601 798.703 579.201 798.703 597.801C798.703 578.601 798.803 559.501 798.603 540.301C798.603 535.601 799.403 530.101 793.103 528.001C789.303 524.001 789.503 519.901 792.703 515.801C800.203 515.001 804.903 517.001 803.803 526.001C803.403 529.401 805.203 532.901 805.603 536.501C805.003 531.101 803.503 525.901 803.603 520.401C803.703 516.001 802.903 510.301 808.003 509.601C814.703 508.701 809.403 516.301 812.403 517.701C811.303 513.401 812.803 507.401 806.803 502.701C807.203 511.901 802.003 514.501 794.303 514.001C793.803 513.101 793.903 512.201 794.503 511.401C794.503 461.101 794.403 410.701 794.703 360.401C794.703 352.801 792.903 349.201 784.803 350.301C781.603 350.801 778.103 350.601 774.903 350.101C769.303 349.201 765.403 345.701 765.903 340.101C766.303 334.601 769.103 330.601 776.003 330.301C794.603 329.501 795.203 329.201 794.403 311.101C793.203 284.501 798.403 259.401 808.703 235.001C811.203 232.101 812.403 228.301 814.503 225.101C817.903 220.801 821.003 216.101 824.903 212.201C829.303 207.901 828.203 204.501 824.803 200.401C821.703 196.601 818.803 192.601 816.303 188.401C813.303 183.401 814.403 178.701 818.903 175.301C823.503 171.801 828.303 172.801 832.303 176.701C834.403 178.701 836.303 181.201 837.603 183.801C841.203 191.001 845.803 192.201 852.003 187.101C854.203 186.001 856.803 185.401 858.203 183.001V183.101C865.903 179.801 873.303 175.901 880.203 171.201C910.303 159.001 940.903 157.001 971.903 167.401C969.803 172.401 964.703 172.901 960.603 174.701C931.903 186.901 910.503 206.901 894.803 233.701C885.503 249.501 881.703 266.701 879.403 284.501C878.803 289.501 879.103 294.501 879.103 299.401C879.103 542.901 879.103 786.401 879.103 1029.9C879.103 1032.6 879.203 1035.2 879.103 1037.9C878.603 1046 882.503 1048.8 890.503 1049.1C899.203 1049.4 908.403 1046.2 916.503 1052C900.103 1054.9 883.503 1053.9 867.103 1052.9C842.903 1051.3 818.603 1048.7 794.703 1043.6Z" fill="#408B45"/>
<path d="M1314.5 1389.6C1314.5 1456 1314.5 1522.4 1314.5 1588.7C1314.5 1597.4 1315.6 1605.8 1318.9 1613.9C1327.1 1634.1 1347.8 1645 1369.4 1640.4C1395.4 1634.9 1402.4 1626.6 1406.6 1599C1407.9 1590.4 1408.2 1581.9 1408.2 1573.3C1408.3 1444.5 1408.3 1315.7 1408 1187C1408 1177.5 1410.4 1174.5 1420.1 1174.8C1440 1175.5 1459.9 1175.2 1479.8 1174.9C1484.9 1174.8 1487.6 1176.1 1488.6 1181.6C1489.3 1185.5 1489.8 1189.4 1489.8 1193.4C1489.8 1325.8 1490.4 1458.3 1489.4 1590.7C1489.1 1625.8 1481.6 1660 1454.1 1685.6C1436.4 1702.1 1414.9 1710.7 1391.2 1714.6C1360.8 1719.7 1330.6 1717.8 1302.5 1706C1269.4 1692.1 1249.4 1665.4 1240.9 1630.4C1237.2 1615.2 1236.8 1599.7 1236.8 1584.1C1236.9 1452.3 1236.9 1320.6 1236.9 1188.8C1236.9 1175 1236.9 1175 1250.6 1175C1268.2 1175 1285.8 1175.4 1303.4 1174.8C1312.3 1174.5 1314.8 1177.8 1314.7 1186.3C1314.4 1254.1 1314.5 1321.9 1314.5 1389.6Z" fill="white"/>
<path d="M647.4 1442.7C647.4 1392.9 646.7 1343.1 647.7 1293.4C648.2 1269.7 652.6 1246.3 664.2 1224.9C676.6 1202.1 695 1185.8 719.3 1177.6C754.9 1165.4 791.4 1164 827.2 1177.2C862 1190 884.2 1214.7 894.7 1250.8C903.1 1279.9 899.2 1309.3 900.4 1338.6C900.6 1343.8 897.4 1344.1 893.4 1344.5C874.9 1346.4 856.4 1346.3 837.9 1346.5C822.7 1346.6 822.7 1346.9 822.7 1331C822.7 1314.5 822.7 1298 820.8 1281.5C818.3 1260.5 800.5 1243.8 780.8 1242.7C749.6 1240.9 733.8 1261 730.9 1280.5C729.2 1292.1 729.1 1303.6 729.1 1315.1C729.1 1405.4 729 1495.6 729.2 1585.9C729.2 1598.7 730.8 1611.4 737.5 1623.1C746.6 1639.1 768.4 1646.7 790.8 1640.9C807 1636.7 818.8 1619.3 820.9 1600.5C823.4 1577.7 822.5 1554.8 822.4 1532C822.4 1523.5 825.2 1521.5 833.2 1521.5C852.1 1521.6 870.8 1524.8 889.7 1523.9C896.8 1523.6 900.8 1526.8 900.5 1535.4C899.8 1555.3 900.3 1575.2 900.3 1595.1C900.2 1624.4 892.5 1651.5 874.4 1674.7C855.6 1698.7 829.8 1711 799.7 1715C778.5 1717.8 757.7 1717.6 736.7 1713C711.6 1707.5 690.6 1695.5 674.4 1675.5C654.3 1650.6 648.2 1620.9 647.6 1590.1C646.7 1540.9 647.4 1491.8 647.4 1442.7Z" fill="white"/>
<path d="M1667.5 1169.3C1689.8 1167.3 1710.5 1171.9 1730.5 1180.8C1755.5 1191.9 1771 1211.5 1781 1236.4C1788.5 1255.1 1789.2 1274.4 1788.7 1294C1788.6 1299.8 1786.5 1302.1 1780.5 1302.6C1761.1 1304.1 1741.7 1305 1722.5 1308.3C1714.8 1309.6 1709.9 1308 1710.7 1298.2C1711.5 1288.7 1711.5 1279.1 1708.9 1269.6C1703.7 1251.2 1686 1240.9 1662.3 1242.8C1644.4 1244.2 1631.5 1258.4 1629 1276.4C1626.7 1292.5 1627.9 1307.7 1632.4 1323.2C1637.1 1339.4 1647.1 1351.9 1658 1363.9C1684.4 1392.8 1717.2 1414.9 1743.7 1443.7C1771.7 1474.2 1795.2 1507.7 1797.9 1550.2C1800.3 1588.9 1803.6 1628.8 1782.4 1664.5C1770.8 1684 1754.2 1698.7 1732.5 1706.6C1692.4 1721.1 1651.9 1721.2 1612.2 1706.4C1580.8 1694.7 1561 1671.2 1551.6 1638.8C1544.8 1615.5 1545.8 1591.7 1545.7 1567.9C1545.7 1563.3 1547.3 1561.8 1552 1561.2C1573.9 1558.4 1596 1557 1618 1555.1C1624.2 1554.5 1625.5 1556.4 1625.5 1561.8C1625.3 1573.7 1625.5 1585.7 1625.4 1597.6C1625.3 1621 1634.3 1632.5 1652.2 1639.3C1674.2 1647.6 1696.4 1641.9 1709.1 1626C1714.1 1619.8 1716.3 1611.9 1716.5 1604.7C1716.9 1586.6 1719.5 1568.5 1714 1550.4C1709 1534.1 1700.1 1520.6 1688.9 1508.2C1662.2 1478.7 1629.2 1455.7 1601.8 1426.9C1575.7 1399.4 1554.7 1368.9 1548.9 1330.2C1542.8 1289.5 1543.4 1249.8 1566.4 1213.4C1577.8 1195.3 1595.3 1184.7 1614.6 1176.8C1631.4 1170 1649.3 1167.6 1667.5 1169.3Z" fill="white"/>
<path d="M1101.5 1480.3C1101.5 1553 1101.4 1625.6 1101.7 1698.3C1101.7 1706.4 1099.8 1709.3 1091.3 1709C1071.7 1708.4 1052.1 1708.3 1032.6 1709C1023.4 1709.3 1021.7 1706.1 1021.7 1697.7C1021.9 1556 1021.9 1414.4 1021.9 1272.7C1021.9 1250.3 1024.1 1253.2 1001.4 1252.6C981.602 1252.1 961.702 1254.3 941.902 1251.1C935.902 1250.1 934.102 1248.4 934.202 1242.6C934.502 1223 934.602 1203.4 934.202 1183.9C934.002 1176.7 936.702 1175 943.402 1175C986.202 1175.2 1029 1175.1 1071.8 1175.1C1107.3 1175.1 1142.8 1175.3 1178.3 1175C1186.3 1174.9 1189.6 1177.2 1189.4 1185.7C1188.9 1204.6 1189 1223.5 1189.4 1242.4C1189.6 1250.2 1186.9 1253 1179 1252.8C1156.9 1252.3 1134.7 1253.5 1112.6 1251.3C1103.5 1250.4 1101.3 1254.5 1101.4 1263.3C1101.6 1335.6 1101.5 1407.9 1101.5 1480.3Z" fill="white"/>
<path d="M621.502 115.602C672.002 130.802 704.202 164.502 717.402 215.002C735.002 282.302 698.602 353.202 635.102 378.302C563.302 406.702 485.002 374.302 453.802 303.402C452.702 301.002 451.502 298.702 450.402 296.302C470.102 258.902 496.002 225.802 525.002 195.002C553.802 164.502 586.602 138.702 621.502 115.602Z" fill="white"/>
<path d="M706.003 1865C718.103 1837.4 729.503 1811.7 740.703 1785.9C742.503 1781.8 743.803 1778.4 749.503 1778.3C756.203 1778.2 758.803 1779.9 758.703 1787.1C758.303 1816 758.603 1844.8 758.503 1873.7C758.503 1877.5 759.803 1881.9 753.203 1882.1C745.803 1882.4 748.603 1877.3 748.603 1874C748.503 1847.9 748.503 1821.8 746.303 1795.2C741.503 1805.8 736.603 1816.3 731.903 1826.9C724.703 1843.3 717.803 1859.8 710.703 1876.2C709.703 1878.5 709.203 1881.8 705.803 1881.7C702.403 1881.7 702.003 1878.3 701.003 1876.1C691.003 1853.7 681.003 1831.3 671.003 1808.9C669.003 1804.5 666.903 1800.2 663.203 1796.4C663.203 1821.8 663.303 1847.2 663.103 1872.6C663.103 1876.3 665.603 1882.2 658.203 1882.1C651.003 1882 653.203 1876.3 653.203 1872.5C653.003 1844.3 653.003 1816.1 653.203 1787.9C653.203 1784.5 650.803 1779.2 657.403 1778.7C662.703 1778.3 667.503 1777.8 670.403 1784.6C681.003 1809.6 692.203 1834.4 703.103 1859.3C703.703 1860.3 704.303 1861.5 706.003 1865Z" fill="white"/>
<path d="M574.502 1865.3C586.802 1837.2 598.102 1811.4 609.402 1785.7C610.602 1783.1 611.002 1779.9 614.302 1778.7C621.102 1776.2 625.702 1779.2 625.702 1786.7C625.802 1815.9 625.802 1845.1 625.702 1874.2C625.702 1877.2 627.002 1881.5 621.802 1881.8C615.802 1882.1 617.202 1877.3 617.202 1874C617.102 1851.1 617.102 1828.2 617.102 1805.4C617.102 1802.3 617.102 1799.1 617.102 1796C616.202 1795.8 615.402 1795.6 614.502 1795.4C607.502 1811.2 600.502 1827.1 593.502 1842.9C588.602 1854.1 583.802 1865.4 578.902 1876.6C578.002 1878.6 577.502 1881.5 574.702 1881.6C571.302 1881.8 570.602 1878.6 569.602 1876.3C559.502 1854 549.602 1831.6 539.602 1809.2C537.602 1804.7 535.602 1800.3 531.402 1796C531.402 1803.6 531.402 1811.2 531.402 1818.9C531.402 1837.1 531.402 1855.4 531.402 1873.6C531.402 1877.3 532.702 1882.2 526.102 1881.9C520.202 1881.6 521.702 1877.1 521.702 1873.8C521.602 1845 521.602 1816.1 521.702 1787.3C521.702 1784.2 519.602 1779.2 525.402 1778.7C530.502 1778.2 535.702 1777.3 538.602 1784.1C547.402 1804.8 556.602 1825.4 565.702 1846C568.402 1851.7 571.002 1857.3 574.502 1865.3Z" fill="white"/>
<path d="M916.601 1051.8C905.701 1051.7 894.701 1051.3 883.801 1051.5C878.201 1051.6 875.801 1049.7 876.301 1044C876.501 1042 876.301 1040 876.301 1038C876.301 790.703 876.301 543.303 876.401 296.003C876.401 290.903 874.501 285.403 878.301 280.703C882.401 285.103 881.301 290.703 881.301 295.903C881.401 346.003 881.401 396.103 881.401 446.203C881.401 640.303 881.401 834.503 881.401 1028.6C881.401 1046.5 881.401 1046.6 899.601 1046.5C912.501 1046.4 925.501 1048.1 937.901 1042.7C939.101 1042.2 940.601 1041.9 941.801 1042.2C950.301 1044.3 957.101 1041.2 963.901 1036.3C967.901 1033.4 975.301 1031.2 976.701 1036.9C978.101 1042.4 979.501 1039.6 981.601 1039.1C1004.1 1033.4 1026.9 1028.8 1048.9 1021.4C1061.8 1017.1 1061.9 1017.2 1062.6 1003.4C1062.9 998.503 1062.5 993.603 1062.8 989.503C1061.5 994.103 1064.3 1000.2 1061 1005.8C1055.9 1002.4 1056.8 997.303 1056.6 993.003C1056.1 984.603 1053.3 978.603 1044.5 975.803C1039.2 974.203 1033.8 971.103 1033.8 964.203C1033.8 956.703 1041.5 946.803 1047.9 945.303C1052.9 944.203 1056.6 945.103 1056.4 951.303C1056.1 951.903 1055.7 952.503 1055.2 952.903C1051.8 955.703 1046.2 957.103 1047.6 963.103C1049.1 969.603 1054.9 968.803 1059.7 969.103C1066.1 969.503 1069.1 972.203 1068.6 979.103C1067.6 993.103 1069.9 1007.2 1067.5 1021.2C1018.9 1039.8 968.501 1049.8 916.601 1051.8Z" fill="#53A74E"/>
<path d="M1152.9 1829.7C1152.9 1815.1 1153.1 1800.5 1152.8 1785.9C1152.7 1780.4 1154.4 1778.3 1160.1 1778.4C1176.7 1778.7 1193.3 1778.4 1209.8 1778.5C1212.5 1778.5 1216.3 1777.4 1216.6 1782.1C1217 1787.3 1213.1 1786.8 1209.8 1786.8C1196.9 1786.8 1183.9 1787 1171 1786.7C1165.3 1786.6 1162.9 1787.9 1162.7 1794.3C1161.8 1824.2 1161.6 1824.2 1191.4 1824.2C1196.4 1824.2 1201.3 1824.2 1206.3 1824.2C1209.8 1824.2 1213.1 1824.1 1212.9 1829.1C1212.7 1834.2 1209.2 1833.7 1205.9 1833.7C1194.6 1833.7 1183.3 1834.2 1172.1 1833.6C1164.4 1833.2 1162.1 1836.1 1162.8 1843.3C1163.3 1849.6 1163.4 1855.9 1162.8 1862.2C1161.9 1871 1164.4 1874.7 1174.1 1874C1186.6 1873.1 1199.3 1873.7 1211.9 1873.8C1214.7 1873.8 1218.4 1872.9 1218.7 1877.4C1219 1882.7 1214.9 1881.9 1211.8 1881.9C1194.6 1882 1177.3 1881.8 1160.1 1882.1C1154.2 1882.2 1152.9 1879.6 1152.9 1874.3C1153.1 1859.5 1152.9 1844.6 1152.9 1829.7Z" fill="white"/>
<path d="M1067.5 1021.1C1067.5 1007.9 1067.1 994.703 1067.8 981.603C1068.2 973.503 1065.2 971.003 1057.6 971.803C1051.6 972.403 1045.3 972.303 1043.7 964.403C1042.1 956.503 1045.6 952.903 1055.6 951.803C1062.9 949.303 1065 943.603 1064.7 936.503C1064.8 882.503 1064.7 828.603 1064.8 774.703C1064.8 769.903 1063.4 764.603 1067.9 760.703C1068.5 760.803 1069.2 760.903 1069.8 761.003C1069.7 822.003 1069.7 882.903 1069.5 943.903C1069.5 949.703 1070.8 952.703 1077.2 952.003C1080.5 951.603 1083.8 952.003 1087.1 952.003C1093.8 951.903 1096.9 955.803 1097.2 961.803C1097.5 967.503 1093.9 970.903 1088.3 971.903C1087.7 972.003 1087 972.003 1086.3 972.103C1069.6 973.703 1069.6 973.703 1069.6 991.003C1069.6 1000.6 1069.7 1010.2 1069.8 1019.8C1069 1020.2 1068.3 1020.7 1067.5 1021.1Z" fill="#3E8C44"/>
<path d="M1039.9 1829.31C1039.9 1815.01 1039.8 1800.81 1039.9 1786.51C1039.9 1783.11 1038.6 1778.71 1044.5 1778.51C1051.2 1778.21 1049.6 1783.21 1049.6 1786.81C1049.7 1812.71 1049.9 1838.51 1049.5 1864.41C1049.4 1871.71 1051.2 1874.51 1058.9 1874.01C1069.8 1873.41 1080.8 1873.81 1091.7 1873.91C1094.8 1873.91 1099 1872.91 1098.8 1878.21C1098.6 1883.51 1094.2 1882.01 1091.3 1882.01C1076.7 1882.21 1062.1 1881.81 1047.5 1882.21C1041.2 1882.41 1039.6 1879.81 1039.7 1874.01C1040.1 1859.11 1039.9 1844.21 1039.9 1829.31Z" fill="white"/>
<path d="M494 1830.3C494 1845.2 494 1860.1 494 1875C494 1878.9 494 1882.4 488.5 1882.1C483.3 1881.8 484 1878.2 484 1875C484 1845.2 484 1815.4 484 1785.6C484 1782.4 483.2 1778.8 488.5 1778.6C494.1 1778.3 494 1781.8 494 1785.6C494 1800.4 494 1815.3 494 1830.3Z" fill="white"/>
<path d="M1011.8 1831C1011.8 1845.2 1011.9 1859.5 1011.7 1873.7C1011.7 1877.3 1013.2 1882.2 1006.6 1882.1C1000.8 1882 1001.8 1877.7 1001.8 1874.3C1001.8 1844.9 1001.8 1815.4 1001.8 1786C1001.8 1782.3 1001.2 1778.5 1007 1778.7C1012.9 1778.9 1011.7 1783.1 1011.7 1786.5C1011.8 1801.2 1011.8 1816.1 1011.8 1831Z" fill="white"/>
<path d="M1123.6 1830.3C1123.6 1844.9 1123.7 1859.4 1123.5 1874C1123.5 1877.3 1125 1882.1 1119 1881.9C1113.8 1881.8 1115 1877.5 1115 1874.5C1114.9 1845.1 1114.9 1815.6 1115 1786.2C1115 1783.2 1113.8 1779 1119 1778.8C1125.1 1778.6 1123.4 1783.5 1123.5 1786.7C1123.7 1801.2 1123.6 1815.7 1123.6 1830.3Z" fill="white"/>
<path d="M1067.6 940.103C1066.3 946.703 1065.9 954.303 1055.7 951.903C1055.5 949.403 1054.4 946.303 1052.1 946.903C1047.1 948.003 1040.9 949.003 1040.1 955.403C1039.4 961.203 1030.5 970.203 1043.3 972.403C1059.4 975.103 1060 986.003 1059.8 998.303C1059.8 1000.2 1059.1 1002.3 1061.9 1004.7C1061.9 994.403 1061.9 984.903 1061.9 974.003C1067.5 977.803 1066.1 982.203 1065.3 985.303C1063.2 993.903 1063.2 1002.2 1065.5 1010.7C1067 1016.2 1065 1019.9 1058.9 1021.8C1031.3 1030.4 1003.3 1037.8 974.9 1043.4C972.7 1043.8 970.4 1043.5 967.6 1043.5C969.1 1037.8 974.2 1041 976.6 1038.7C971.6 1035.4 963.6 1036.3 959.6 1042.4C956 1048 949.8 1047.4 947.2 1046.1C941.6 1043.4 937.7 1045 933.5 1047.6C931.1 1049.1 928.7 1049.6 926 1049.6C912.7 1049.6 899.4 1049.4 886.2 1049.7C880.7 1049.8 878.1 1048.1 878.6 1042.3C878.8 1039.7 878.6 1037 878.6 1034.3C878.6 783.103 878.6 531.903 878.6 280.703C880 249.403 894.8 224.503 915.8 202.303C931.6 185.603 951.1 175.103 972.3 167.203C1000.2 175.303 1023 190.803 1040.3 214.303C1050.9 231.803 1061 249.503 1065 270.103C1066.4 277.303 1067.8 284.403 1067.8 291.703C1068 332.503 1067.9 373.203 1067.9 414.003C1067.9 416.603 1068.2 419.303 1066.7 421.703C1065.8 422.703 1064.7 422.903 1063.5 422.403C1061 420.403 1060.1 417.603 1060.3 414.503C1062.1 380.003 1060.3 345.503 1061 320.803C1061 341.403 1061 371.803 1061 402.203C1061 405.503 1061.1 408.803 1060.7 412.103C1060.1 417.503 1058.9 421.903 1052 421.603C1049.4 421.503 1047 423.203 1044.7 424.603C1040.6 427.203 1040.8 431.203 1041.2 435.203C1041.6 439.403 1044.9 440.403 1048.2 441.003C1051.8 441.703 1055.5 441.303 1059.1 441.503C1065.1 441.803 1068.4 444.603 1067.9 450.903C1067.9 497.303 1068.1 543.803 1067.8 590.203C1066.8 596.603 1061.4 595.503 1057.1 596.303C1052.4 597.203 1049.2 599.503 1049.1 604.603C1049 610.003 1053 610.703 1057.2 610.703C1058.9 610.703 1060.5 610.703 1062.2 610.903C1067.7 611.403 1069.1 614.603 1069 619.803C1068.7 631.103 1068.8 642.303 1069 653.603C1069 656.803 1067.9 660.203 1070.1 663.203C1086 662.003 1098.6 653.503 1111.1 645.003C1111.4 644.803 1111.6 644.603 1111.9 644.403C1116.5 642.003 1122.4 646.403 1126.6 641.303C1130.6 636.503 1124.9 631.903 1126.7 627.303C1126.9 626.703 1127.3 626.203 1127.8 625.703C1136.5 611.003 1140.6 594.803 1143.6 578.103C1146.5 561.703 1155.7 549.903 1171.4 543.603C1177.4 544.603 1175.6 550.003 1176.8 553.603C1178.3 558.003 1179.4 563.103 1185.4 562.403C1192 561.603 1192 556.403 1191.8 551.203C1191.4 540.403 1191.6 540.303 1203.7 541.503C1207.4 541.703 1210.5 543.403 1213.4 545.603C1216.8 548.503 1219 551.803 1218.5 556.703C1214.4 602.003 1198.1 641.603 1165.4 673.903C1163.5 675.803 1161.5 677.503 1159.1 678.603C1152.1 679.203 1146.5 681.703 1144.7 689.403C1130.4 700.103 1115.7 709.803 1097.3 712.003C1095 712.103 1092.6 712.003 1090.3 712.503C1071.4 716.103 1071.1 717.103 1070.3 736.103C1069.9 746.803 1072.4 758.903 1061.5 766.903C1059.7 768.203 1060.8 771.303 1060.8 773.603C1060.8 827.903 1060.8 882.103 1060.8 936.403C1060.8 880.003 1060.8 823.703 1061.9 767.203C1067 770.103 1065.7 774.603 1065.7 778.503C1065.8 828.303 1065.7 878.003 1065.8 927.803C1065.6 931.803 1064.5 936.303 1067.6 940.103Z" fill="#53A74A"/>
<path d="M1157.2 677.106C1185.6 653.206 1202 622.206 1210.9 586.706C1213.5 576.406 1214.8 566.006 1216.1 555.606C1216.6 551.506 1213.9 548.806 1213.1 545.406C1230.1 553.106 1239.3 574.006 1237.5 591.306C1236 605.906 1232.7 620.006 1228.2 633.906C1226.3 639.806 1227.6 641.906 1233.7 641.506C1237.6 641.306 1241.7 641.306 1245.6 642.006C1250.8 643.006 1253.5 646.606 1253.2 652.106C1252.9 657.506 1249.9 660.606 1244.6 661.306C1243.9 661.406 1243.2 661.606 1242.6 661.406C1222.8 657.206 1213.5 668.306 1203.1 683.606C1171.3 730.006 1125.5 754.406 1070 761.006L1069.3 760.506C1066.8 747.806 1069.7 734.906 1068.6 722.206C1068.3 718.206 1071.1 717.306 1074 716.206C1082.3 712.906 1091.2 711.906 1099.6 709.006C1116.3 705.906 1130 696.906 1143.4 687.106C1147.3 683.006 1151.8 679.406 1157.2 677.106Z" fill="#408B45"/>
<path d="M1063.6 422.201C1064.3 422.201 1064.9 422.201 1065.6 422.201C1067 420.901 1068.3 422.201 1069.6 422.301C1075.2 422.401 1080.9 422.101 1086.5 422.601C1092.7 423.201 1096.2 426.801 1095.7 433.201C1095.2 439.101 1091.8 441.801 1085.9 442.201C1069.7 443.601 1069.7 443.701 1069.7 460.501C1069.7 501.601 1069.9 542.801 1069.5 583.901C1069.4 591.901 1071.7 594.701 1079.6 593.801C1083.5 593.301 1087.6 593.501 1091.5 594.101C1097.2 594.901 1100.4 598.701 1100.3 604.401C1100.2 610.301 1096.6 613.501 1090.8 613.801C1083.9 614.101 1076.9 614.101 1069.9 614.301C1068.6 613.501 1068 612.101 1068.7 611.001C1071.8 606.301 1077.2 604.101 1080.7 599.401C1084.1 594.801 1090.4 599.701 1090.4 608.301C1093.5 601.301 1091.5 598.801 1085.3 598.601C1081.9 598.501 1061.4 610.401 1059.5 613.601C1058.2 613.601 1056.8 613.601 1055.5 613.601C1051 610.701 1048 607.001 1050 601.301C1051.9 595.801 1056.4 595.401 1061.3 596.001C1065.3 596.501 1066.6 594.301 1066.5 590.801C1066.5 544.401 1066.5 498.001 1066.5 451.601C1067.6 445.101 1065.1 442.301 1058.4 443.301C1055.8 443.701 1053.1 443.401 1050.5 443.301C1044.9 443.201 1040.9 441.001 1039.9 435.101C1038.8 428.701 1040.8 424.001 1047.3 421.801C1052.8 419.801 1058.2 419.901 1063.6 422.201Z" fill="#3F8C46"/>
<path d="M1203.4 541.403C1196.2 541.303 1190.8 541.903 1194.4 551.903C1196.4 557.303 1194.8 563.603 1187.9 565.403C1180.7 567.303 1176.3 564.503 1174.2 556.703C1173 552.403 1175 547.203 1171 543.603C1174.1 537.503 1170.7 531.403 1170.9 525.203C1171.1 518.403 1172.7 512.903 1180 512.303C1188 511.603 1191.2 517.003 1191.1 524.303C1191.2 533.003 1192.8 540.303 1203.4 541.403Z" fill="#3F8C46"/>
<path d="M1069.6 422.205C1068.2 424.305 1066.9 422.405 1065.6 422.105C1065.6 381.005 1065.2 339.805 1065.7 298.705C1066.1 270.705 1057.6 245.805 1042.6 222.605C1041 220.105 1039.4 217.505 1039.9 214.305C1059.5 237.605 1068.6 265.005 1069.2 294.805C1070 337.305 1069.5 379.805 1069.6 422.205Z" fill="#53A64E"/>
<path d="M1127.4 625.601C1127.4 626.301 1127.3 627.001 1127.5 627.601C1133 645.101 1129.7 648.601 1110.8 644.901C1110 643.501 1109.3 641.901 1108.2 640.801C1103.7 636.301 1101.9 631.301 1106.4 626.001C1110.7 620.901 1116 620.601 1121.2 624.701C1123.2 626.401 1125.1 626.701 1127.4 625.601Z" fill="#3F8B45"/>
<path d="M1059.6 613.403C1060.4 609.903 1055.5 608.203 1057 603.703C1064 608.703 1068.3 606.903 1073.6 600.203C1077.8 594.903 1086.3 596.003 1092.8 599.203C1094.6 600.103 1098.2 602.103 1095.9 605.303C1093.3 608.903 1090.4 613.103 1084.4 610.103C1084.8 609.103 1085 608.203 1085.5 607.403C1087 605.103 1090.7 602.703 1087.4 600.203C1085.7 598.903 1078.9 596.103 1081.1 604.603C1081.3 605.503 1072 608.503 1069.9 614.003C1069.8 630.303 1069.8 646.603 1069.7 662.903C1065.4 655.503 1068.3 647.503 1067.7 639.803C1067.2 633.503 1067.3 627.203 1067.7 621.003C1068.1 615.003 1065.5 612.703 1059.6 613.403Z" fill="#3F8C45"/>
<path d="M794.7 515.805C791.7 519.805 791.7 523.805 794.7 527.805C795.9 529.105 795.9 530.405 794.8 531.805L794.2 532.305C790.3 532.105 786.3 532.105 782.4 531.705C776.7 531.205 773.2 527.905 773.1 522.205C773 516.105 776.5 512.505 782.7 511.905C786.6 511.605 790.5 511.505 794.5 511.305C794.6 512.105 794.7 513.005 794.7 513.805C795.1 514.205 795.3 514.705 795.1 515.105C795 515.605 794.9 515.805 794.7 515.805Z" fill="#42894B"/>
<path d="M880.301 171.102C874.101 177.102 867.501 182.502 858.301 183.002C864.501 177.002 872.301 173.902 880.301 171.102Z" fill="#42864B"/>
<path d="M814.503 225.102C813.803 229.102 812.603 232.902 808.703 235.002C809.303 230.902 810.603 227.202 814.503 225.102Z" fill="#123126"/>
<path d="M858.2 182.906C858.3 187.506 855.1 187.206 852 187.006C853.5 184.806 855.5 183.306 858.2 182.906Z" fill="#42864B"/>
<path d="M797.902 504.405C797.902 456.405 797.902 408.305 797.902 360.305C798.502 360.305 799.102 360.305 799.802 360.305C799.802 408.305 799.802 456.405 799.802 504.405C799.102 504.505 798.502 504.405 797.902 504.405Z" fill="#3E8C44"/>
<path d="M647.402 564.906C646.902 557.906 650.102 552.606 656.902 552.106C662.902 551.606 667.102 555.406 667.602 562.406C668.002 567.206 671.302 572.106 667.102 576.506C664.102 579.606 660.602 582.706 655.802 580.506C649.302 577.506 647.402 571.606 647.402 564.906Z" fill="#387238"/>
<path d="M837.5 920.302C844.8 920.202 851 922.602 850.7 931.202C850.3 940.402 843.1 941.502 835.6 941.702C828 941.802 822 939.202 822.3 930.802C822.5 921.402 829.8 920.202 837.5 920.302Z" fill="#FBFCF9"/>
<path d="M832.402 438.205C841.102 438.005 847.302 440.205 847.102 448.905C846.802 459.205 838.402 459.105 831.102 459.305C824.002 459.505 818.202 456.805 818.702 448.705C819.102 439.405 826.002 438.005 832.402 438.205Z" fill="#FAFBF9"/>
<path d="M828.6 571.103C836.3 570.403 842.6 572.803 842.2 581.403C841.7 591.403 833.2 591.403 825.8 591.503C818.6 591.603 812.8 588.503 813.3 580.803C813.9 571.603 821.1 570.503 828.6 571.103Z" fill="#FAFCFA"/>
<path d="M675.702 764.804C670.602 764.704 667.302 761.504 667.302 755.104C667.202 747.304 674.002 741.504 684.302 741.104C690.002 740.904 693.902 743.704 694.802 749.304C695.702 755.604 685.302 764.404 675.702 764.804Z" fill="#397139"/>
<path d="M841.1 245C849.3 245.2 858.1 252.9 857.8 260.4C857.6 266.2 854.3 269.3 848.1 269C839.6 268.7 830.5 261.2 830.8 254.4C830.9 248.5 835 244.8 841.1 245Z" fill="#397138"/>
<path d="M908.2 193.605C907.5 198.105 904.5 201.905 899.2 202.805C893.4 203.705 882.5 192.005 883.2 185.405C883.8 179.905 886.8 175.505 893.3 175.305C899.4 175.205 907.9 185.105 908.2 193.605Z" fill="#3A7239"/>
<path d="M842.102 730.601C849.802 730.401 856.602 731.301 856.502 740.401C856.402 750.801 848.302 750.501 840.902 750.801C833.702 751.101 828.202 748.901 828.102 740.801C828.102 730.901 835.302 730.401 842.102 730.601Z" fill="#FAFCF9"/>
<path d="M800.603 849.403C800.603 888.903 800.603 928.403 800.603 968.303C798.803 968.603 795.703 969.203 792.703 969.803C796.703 966.903 797.003 963.503 796.903 958.903C796.503 925.403 796.703 891.903 796.803 858.403C796.803 855.303 797.803 852.203 798.303 849.203C799.103 849.303 799.803 849.303 800.603 849.403Z" fill="#3F8B44"/>
<path d="M798.102 747.106C798.102 715.206 798.102 683.306 798.102 651.406C801.302 683.206 800.502 715.106 800.702 747.006C799.802 747.006 798.902 747.106 798.102 747.106Z" fill="#3D8C41"/>
<path d="M794.803 531.702C794.803 530.402 794.703 529.102 794.703 527.702C794.803 526.202 795.003 524.602 795.103 523.102C804.103 551.702 799.103 580.702 800.803 609.402C799.403 609.402 798.103 609.502 796.703 609.502C796.703 601.502 796.703 593.602 796.703 585.602C796.703 570.702 796.803 555.802 796.703 541.002C796.703 537.902 797.703 534.402 794.803 531.702Z" fill="#3E8C44"/>
<path d="M794.703 515.803C794.703 515.103 794.703 514.503 794.703 513.803C804.203 512.203 804.603 504.503 805.003 496.203C816.503 505.503 813.603 517.203 814.903 530.003C808.003 523.603 812.803 516.403 809.103 510.303C804.303 515.703 804.303 521.303 805.503 527.603C806.603 533.103 809.403 538.603 807.203 546.103C800.903 535.803 807.603 521.603 794.703 515.803Z" fill="#3E8C44"/>
<path d="M599.502 1695.6C599.402 1694.9 599.402 1694.3 599.302 1693.6C587.102 1628.6 576.702 1563.2 565.002 1498C558.002 1459.1 551.402 1420.2 544.202 1381.3C532.002 1315.6 521.202 1249.6 510.002 1183.8C508.902 1177.3 506.302 1174.7 499.602 1174.9C485.302 1175.3 471.102 1175 456.802 1175C443.202 1175 429.602 1175.6 416.002 1174.8C406.702 1174.2 403.702 1178.6 402.402 1186.5C393.202 1240.4 383.802 1294.2 374.602 1348.1C369.102 1380.5 363.902 1413 358.202 1445.4C354.002 1469.7 349.002 1493.9 344.702 1518.2C338.102 1554.8 331.802 1591.4 325.402 1628.1C321.202 1652.1 317.002 1676.1 313.002 1700.1C312.302 1704.4 312.002 1708.9 318.902 1708.9C342.102 1708.8 365.402 1708.8 388.602 1708.9C392.102 1708.9 394.002 1707.8 394.502 1703.9C397.002 1682.7 399.602 1661.4 402.602 1640.2C404.802 1624.9 407.802 1609.7 410.202 1594.4C410.902 1589.6 413.002 1587.3 417.902 1587.3C443.502 1587.4 469.002 1587.3 494.602 1587.3C498.802 1587.3 501.402 1588.7 502.102 1593.3C507.302 1629.1 513.002 1664.9 517.802 1700.8C518.702 1707.6 520.902 1708.9 526.902 1708.9C547.102 1708.6 567.402 1708.8 587.602 1708.8C600.802 1708.8 600.802 1708.8 599.502 1695.6ZM483.702 1515.5C465.502 1515.6 447.202 1515.6 429.002 1515.5C423.002 1515.5 421.702 1511.6 422.502 1506.7C426.902 1477.8 431.602 1448.9 435.902 1419.9C440.902 1385.7 445.302 1351.4 450.402 1317.3C451.702 1308.9 451.502 1300.2 457.202 1292.1C459.502 1307.2 461.802 1322.3 464.102 1337.5C468.502 1367.1 472.802 1396.7 477.202 1426.3C481.302 1453.6 485.602 1480.9 489.702 1508.2C490.402 1512.7 488.302 1515.5 483.702 1515.5Z" fill="white"/>
<path d="M956.802 1827.1C970.802 1821.8 974.002 1811.1 971.902 1798.1C970.302 1788.2 961.602 1780.6 948.002 1779.1C936.502 1777.9 924.802 1778.6 913.202 1778.5C908.102 1778.4 908.502 1782.1 908.502 1785.4C908.502 1815.3 908.602 1845.1 908.402 1875C908.402 1880 910.002 1882.2 915.302 1882.1C926.202 1881.8 937.202 1882.5 948.102 1881.8C957.102 1881.2 965.702 1878.4 971.702 1870.6C983.302 1855.5 977.402 1837.3 956.802 1827.1ZM938.602 1786.9C955.202 1787.1 962.302 1793.5 962.502 1805.7C962.702 1815 957.502 1819.6 949.502 1821.9C946.402 1822.8 943.002 1822.8 939.702 1823.4C919.702 1826.7 918.402 1825.7 918.402 1805.5C918.802 1785 914.002 1786.6 938.602 1786.9ZM955.202 1871.3C944.702 1875.1 933.702 1873.9 922.802 1873.9C918.602 1873.9 918.302 1871 918.302 1867.8C918.302 1862.8 918.302 1857.9 918.302 1852.9C918.302 1832.3 918.302 1832.3 939.102 1832.3C950.502 1832.3 961.002 1834 966.002 1846.3C970.302 1856.5 965.602 1867.5 955.202 1871.3Z" fill="white"/>
<path d="M885.601 1818.3C878.901 1783.7 848.801 1770.5 817.401 1778.2C791.801 1784.5 777.601 1806.6 778.801 1834.7C779.901 1860.5 796.701 1878.7 824.501 1884.3C829.901 1884.3 835.201 1884.3 840.601 1884.3C874.101 1880 892.101 1851.8 885.601 1818.3ZM832.501 1876C805.901 1875.9 788.601 1857.3 788.701 1829.1C788.901 1802.6 807.501 1784.2 834.001 1784.6C859.101 1784.9 876.701 1804 876.501 1830.7C876.401 1858.3 859.101 1876.1 832.501 1876Z" fill="white"/>
<path d="M1283.1 1840.9C1279.6 1835.4 1278.9 1832.5 1286.7 1830.2C1300.3 1826.3 1305.4 1817.8 1304.6 1803.2C1304 1791.6 1297 1783.8 1284.6 1780.5C1271.9 1777 1258.9 1779.2 1246 1778.5C1240.4 1778.2 1240.6 1781.9 1240.6 1785.7C1240.6 1815.2 1240.6 1844.7 1240.6 1874.2C1240.6 1877.7 1239.6 1881.9 1245.4 1882C1251.3 1882 1250.2 1877.7 1250.2 1874.3C1250.3 1863 1250.2 1851.8 1250.3 1840.5C1250.3 1838 1249.7 1833.8 1252.9 1833.9C1259.7 1834.1 1267.5 1831.1 1272.3 1839.7C1279 1851.9 1286.5 1863.6 1293.4 1875.7C1296.4 1881 1300.2 1883.6 1307.8 1881.1C1299.4 1867.3 1291.5 1854 1283.1 1840.9ZM1268.7 1824.3C1250.5 1824.4 1250.5 1824.4 1250.5 1805.9C1250.5 1784.3 1250.5 1784.3 1272.1 1786.9C1287.8 1788.8 1294.7 1794.4 1294.9 1805.5C1295 1815.5 1288.3 1822.5 1276.7 1824.1C1274 1824.5 1271.3 1824.3 1268.7 1824.3Z" fill="white"/>
<path d="M1099.5 709.004C1093.3 714.704 1085 714.904 1077.5 716.804C1071.7 718.204 1069.3 720.804 1069.4 726.904C1069.7 738.104 1069.3 749.304 1069.2 760.504C1066.4 764.004 1067.7 768.204 1067.7 772.004C1067.6 828.004 1067.6 884.004 1067.6 939.904C1061.1 938.304 1063.8 932.904 1063.7 929.204C1063.5 879.104 1063.6 829.004 1063.6 778.904C1063.6 775.604 1063.6 772.404 1063.6 769.104C1062.9 769.104 1062.2 769.104 1061.5 769.104C1061.5 828.104 1061.5 887.104 1061.5 946.204C1060.6 946.204 1059.6 946.204 1058.7 946.204C1058.7 885.404 1058.7 824.604 1058.7 763.204C1064.3 762.704 1067.3 761.204 1065.5 751.904C1064.5 746.804 1067.5 738.804 1067.6 732.004C1067.6 728.504 1068.8 724.704 1066.2 721.404C1063.5 717.904 1066.8 716.204 1068.9 715.604C1078.9 713.104 1088.5 707.704 1099.5 709.004Z" fill="#53A74E"/>
<path d="M1008.5 272.803C1003.6 272.403 1000.3 270.603 998.701 266.503C997.001 262.203 997.101 257.903 1001 254.803C1010.6 247.403 1020.3 240.103 1030.1 232.903C1034.4 229.803 1038.6 231.403 1041.7 234.603C1045.1 238.203 1045.9 242.903 1042.3 247.103C1033.8 256.903 1022.6 263.403 1012.6 271.303C1011.4 272.303 1009.6 272.403 1008.5 272.803Z" fill="#408D46"/>
<path d="M1025.7 812.201C1031.3 812.201 1037 812.101 1042.6 812.201C1049 812.301 1052.7 815.801 1052.8 822.001C1052.9 827.701 1049.2 831.601 1043.6 831.801C1031.3 832.201 1019.1 832.201 1006.8 831.701C1001.1 831.501 997.801 827.201 998.101 821.501C998.401 815.801 1001.9 812.401 1007.8 812.201C1013.8 812.101 1019.7 812.201 1025.7 812.201Z" fill="#FDFDFC"/>
<path d="M1016.5 888.707C1024.8 888.707 1031.3 890.807 1031.1 899.407C1030.8 908.507 1023.7 910.107 1016.2 910.007C1008.8 910.007 1002.4 907.406 1002.6 899.106C1002.7 889.906 1009.8 888.407 1016.5 888.707Z" fill="#F9FBF8"/>
<path d="M1008.7 347.106C1001.6 347.706 994.901 346.506 994.701 337.606C994.501 329.306 1000.1 326.606 1007.9 326.706C1018.5 326.906 1023.7 330.206 1023.2 337.606C1022.6 346.806 1015.9 347.406 1008.7 347.106Z" fill="#FAFCF9"/>
<path d="M1025.2 509.6C1033.1 509.1 1039.8 510.6 1039.6 520.1C1039.4 528.1 1033.7 530.2 1026.6 530C1019.5 529.8 1011.9 530.2 1011.5 520.3C1011.1 510.7 1017.7 509.2 1025.2 509.6Z" fill="#FBFCF9"/>
<path d="M925.401 710.802C917.101 710.902 910.301 710.202 910.301 700.802C910.401 690.602 917.901 690.902 925.101 690.802C932.501 690.702 938.801 692.102 938.501 701.302C938.101 710.602 931.301 711.102 925.401 710.802Z" fill="#FAFCF9"/>
<path d="M944.302 976.206C936.002 977.006 930.002 974.206 930.402 965.906C930.802 956.906 938.002 955.906 945.602 955.906C953.302 955.906 959.302 958.506 959.002 966.706C958.602 975.806 951.402 977.006 944.302 976.206Z" fill="#FBFCF9"/>
<path d="M961.001 810.6C968.701 809.9 975.001 812.1 974.801 820.7C974.601 830.1 967.501 830.9 959.901 830.7C952.701 830.6 946.101 829.4 946.301 820.5C946.601 811 953.701 810 961.001 810.6Z" fill="#FBFCF9"/>
<path d="M934.503 602.701C941.603 602.301 948.803 603.401 948.803 612.801C948.803 621.201 942.303 623.301 934.903 623.301C927.303 623.301 920.303 621.901 920.203 612.701C920.203 603.801 926.903 602.501 934.503 602.701Z" fill="#FCFDFA"/>
<path d="M997.101 757.001C989.201 757.501 982.101 756.101 982.301 746.701C982.501 738.201 989.001 736.901 996.401 736.801C1004.3 736.701 1011 738.501 1011 747.301C1010.9 755.601 1004.2 757.601 997.101 757.001Z" fill="#FBFCF9"/>
<path d="M1063.6 422.205C1059.3 422.305 1055 421.905 1050.8 422.505C1045 423.305 1041.1 426.205 1041.7 433.005C1042.2 439.605 1045.8 442.205 1052.1 442.205C1054.7 442.205 1057.4 442.405 1060 442.205C1066.2 441.505 1068.5 444.305 1067.7 450.205C1067 451.105 1066.4 451.105 1065.7 450.205C1066 446.105 1064.3 443.905 1059.9 444.205C1057.3 444.405 1054.5 444.505 1051.9 444.205C1045.9 443.305 1037.8 445.705 1037.7 435.105C1037.5 424.705 1041.3 418.805 1051.5 418.905C1057.4 419.005 1057.5 416.305 1058.7 412.605C1060 408.705 1059.6 404.705 1059.6 400.805C1059.7 369.005 1059.6 337.205 1061.3 305.305C1061.4 307.905 1061.6 310.505 1061.6 313.205C1061.6 344.405 1061.7 375.605 1061.5 406.805C1061.5 411.905 1062 417.105 1063.6 422.205Z" fill="#53A64E"/>
<path d="M1060.9 449.906C1060.9 494.906 1060.9 540.006 1060.9 585.006C1060.4 585.006 1059.9 585.006 1059.4 585.006C1059.4 540.006 1059.4 494.906 1059.4 449.906C1059.9 449.906 1060.4 449.906 1060.9 449.906Z" fill="#53A64E"/>
<path d="M1065.6 450.102C1066.3 450.102 1066.9 450.102 1067.6 450.102C1067.6 497.902 1067.6 545.702 1067.6 593.602C1066.9 594.202 1066.3 594.202 1065.6 593.502C1065.6 545.702 1065.6 497.902 1065.6 450.102Z" fill="#53A64E"/>
<path d="M959.501 243.005C953.101 242.705 949.801 239.505 950.101 232.905C950.501 225.805 959.301 216.605 965.301 217.105C971.301 217.605 975.201 221.105 975.701 227.005C976.201 233.805 966.201 243.205 959.501 243.005Z" fill="#3F8F41"/>
<path d="M1065.6 593.5C1066.3 593.5 1066.9 593.6 1067.6 593.6C1067.4 596.1 1068 598.9 1064 599.2C1049.4 600.3 1049 601.1 1055.6 613.5C1049.2 613.6 1045.4 610.6 1045.8 604.1C1046.2 597.7 1050.3 594.2 1056.7 593.7C1059.7 593.4 1062.6 593.5 1065.6 593.5Z" fill="#3F8C45"/>
<path d="M1157.2 677.106C1153.2 681.306 1149.1 685.406 1143.3 687.106C1144.6 679.206 1149.7 676.606 1157.2 677.106Z" fill="#51A14D"/>
<path d="M792.401 515.4C786.301 518.1 781.701 519.1 782.501 524.6C782.701 526.3 781.201 527.6 779.201 527.2C777.201 526.8 777.001 525.1 776.901 523.4C776.201 517 780.801 513.8 792.401 515.4Z" fill="#3E8C43"/>
<path d="M971.903 227.401C971.903 231.001 960.603 239.601 957.403 238.401C956.503 238.101 955.603 237.401 955.203 236.601C953.003 232.401 954.403 228.601 957.503 225.901C960.803 223.001 964.403 219.101 969.703 222.301C971.503 223.301 972.003 225.301 971.903 227.401Z" fill="#408B47"/>
<path d="M1842.4 1104C1811.4 1104 1786.3 1129.1 1786.3 1160.1C1786.3 1191.1 1811.4 1216.2 1842.4 1216.2C1873.4 1216.2 1898.5 1191.1 1898.5 1160.1C1898.5 1129.1 1873.4 1104 1842.4 1104ZM1842.4 1211.2C1814.2 1211.2 1791.3 1188.3 1791.3 1160.1C1791.3 1131.9 1814.2 1109 1842.4 1109C1870.6 1109 1893.5 1131.9 1893.5 1160.1C1893.5 1188.3 1870.6 1211.2 1842.4 1211.2Z" fill="white"/>
</svg>
